<svg width="1366" height="146" viewBox="0 0 1366 146" fill="none" xmlns="http://www.w3.org/2000/svg">
<path d="M13.6796 93.1077C13.148 87.9872 13.934 83.0949 16.0375 78.4307C18.1411 73.7665 21.2264 69.9294 25.2933 66.9193C29.4258 63.9024 34.0851 62.1248 39.2713 61.5863C44.4574 61.0479 49.3497 61.8338 53.9482 63.9442C58.6124 66.0478 62.4529 69.1659 65.4698 73.2984C68.4867 77.431 70.261 82.0575 70.7926 87.178L72.3671 102.342C72.8987 107.463 72.1127 112.355 70.0091 117.019C67.9055 121.684 64.7875 125.524 60.6549 128.541C56.588 131.551 51.9615 133.325 46.7754 133.864C41.5893 134.402 36.6641 133.62 32 131.516C27.4014 129.406 23.5937 126.284 20.5768 122.152C17.5599 118.019 15.7857 113.393 15.2541 108.272L13.6796 93.1077ZM33.1757 106.411C33.5029 109.563 34.767 112.152 36.9682 114.179C39.1693 116.207 41.8454 117.057 44.9965 116.73C48.0819 116.41 50.4935 115.031 52.2311 112.595C53.9688 110.158 54.6741 107.364 54.3469 104.213L52.7623 88.9504C52.4283 85.7337 51.1641 83.1444 48.9698 81.1825C46.7755 79.2206 44.1356 78.3999 41.0502 78.7202C37.8991 79.0474 35.4513 80.3964 33.7068 82.7672C31.9623 85.138 31.2571 87.9318 31.5911 91.1485L33.1757 106.411Z" fill="white"/>
<path d="M147.426 104.401L149.107 121.843L96.8793 126.878L90.2679 58.2917L93.914 57.9402L98.8441 109.084L147.426 104.401Z" fill="white"/>
<path d="M162.854 51.3769L212.848 46.9028L214.401 64.2574L182.354 67.1254L183.13 75.8027L209.754 73.4201L211.228 89.8873L184.604 92.2699L185.39 101.046L217.436 98.1779L218.99 115.533L168.996 120.007L162.854 51.3769Z" fill="white"/>
<path d="M264.568 113.48C255.031 114.266 247.479 112.637 241.914 108.593C236.409 104.478 233.318 97.9114 232.641 88.8945L248.723 87.5684C248.967 91.3231 250.321 94.0922 252.786 95.8757C255.251 97.6591 258.555 98.38 262.699 98.0383C266.119 97.7563 268.77 96.9748 270.651 95.6939C272.532 94.413 273.378 92.6214 273.188 90.3192C273.031 88.4117 271.897 87.1145 269.788 86.4275C267.744 85.7351 265.722 85.3058 263.721 85.1397C261.716 84.9077 260.48 84.7779 260.014 84.75C254.868 84.181 250.396 83.3577 246.598 82.2801C242.796 81.1368 239.525 79.2211 236.787 76.533C234.049 73.8449 232.484 70.1329 232.094 65.397C231.703 60.6611 232.622 56.5456 234.851 53.0507C237.074 49.49 240.189 46.7166 244.198 44.7304C248.272 42.7389 252.775 41.5397 257.709 41.1329C263.694 40.6394 268.95 41.3318 273.476 43.2103C278.067 45.0833 281.8 48.186 284.673 52.5185C286.102 54.5861 287.032 56.6286 287.463 58.646C287.889 60.5976 288.181 62.5271 288.338 64.4347L272.256 65.7608C271.963 62.2088 270.795 59.6893 268.752 58.2022C266.703 56.6493 263.673 56.0382 259.66 56.3691C256.437 56.6349 253.984 57.4001 252.3 58.6647C250.616 59.9294 249.853 61.5155 250.01 63.423C250.184 65.5278 251.495 66.976 253.945 67.7674C256.394 68.5587 259.46 69.2 263.143 69.691C269.16 70.3868 273.86 71.1582 277.241 72.0052C280.682 72.7811 283.734 74.4499 286.395 77.0119C289.057 79.5738 290.594 83.3543 291.006 88.3534C291.396 93.0893 290.417 97.2759 288.068 100.913C285.719 104.551 282.45 107.469 278.26 109.669C274.131 111.797 269.567 113.068 264.568 113.48Z" fill="white"/>
<path d="M311.661 56.2499L310.368 38.874L354.795 35.5668L356.088 52.9427L335.652 54.464L338.18 88.426L358.617 86.9047L359.91 104.281L315.483 107.588L314.189 90.2119L334.626 88.6906L332.098 54.7286L311.661 56.2499Z" fill="white"/>
<path d="M445.97 98.5166L381.163 102.727L409.003 30.381L445.97 98.5166ZM386.655 98.6997L440.003 95.2336L409.568 39.0747L386.655 98.6997Z" fill="white"/>
<path d="M508.883 54.8634L539.54 93.5925L484.167 96.3268L480.769 27.5066L536.142 24.7724L508.883 54.8634ZM506.439 57.5612L486.981 79.0399L487.645 92.4876L532.339 90.2806L506.439 57.5612Z" fill="white"/>
<path d="M554.779 50.8092C554.607 45.6641 555.734 40.8388 558.159 36.3334C560.584 31.828 563.93 28.2164 568.198 25.4986C572.532 22.7785 577.304 21.3315 582.515 21.1576C587.726 20.9837 592.551 22.1104 596.991 24.5377C601.496 26.9628 605.109 30.3422 607.829 34.6758C610.549 39.0095 611.995 43.7489 612.167 48.8941L612.675 64.1316C612.847 69.2767 611.72 74.102 609.295 78.6074C606.87 83.1128 603.491 86.7255 599.157 89.4456C594.889 92.1634 590.15 93.6093 584.939 93.7832C579.728 93.9571 574.869 92.8315 570.364 90.4064C565.925 87.9792 562.345 84.5987 559.625 80.265C556.905 75.9313 555.459 71.1919 555.287 66.0467L554.779 50.8092ZM573.295 65.4458C573.401 68.612 574.48 71.2835 576.534 73.4602C578.588 75.6369 581.198 76.6724 584.364 76.5668C587.464 76.4633 589.967 75.2572 591.871 72.9484C593.775 70.6396 594.674 67.9021 594.568 64.7359L594.056 49.3994C593.949 46.1672 592.869 43.4957 590.817 41.385C588.766 39.2742 586.19 38.2706 583.09 38.374C579.923 38.4797 577.387 39.654 575.481 41.8968C573.575 44.1396 572.675 46.8771 572.783 50.1093L573.295 65.4458Z" fill="white"/>
<path d="M657.435 91.9883C647.866 92.0978 640.449 89.9386 635.184 85.5106C629.984 81.0158 627.365 74.2473 627.328 65.2052L643.464 65.0205C643.441 68.783 644.595 71.6409 646.928 73.5944C649.26 75.5478 652.506 76.5007 656.663 76.4531C660.095 76.4138 662.794 75.8219 664.761 74.6773C666.729 73.5327 667.699 71.8055 667.672 69.4956C667.65 67.5818 666.612 66.2076 664.556 65.3731C662.566 64.5378 660.58 63.9665 658.596 63.6592C656.612 63.2858 655.388 63.0688 654.925 63.0081C649.832 62.0764 645.43 60.9387 641.718 59.5951C638.006 58.1855 634.879 56.0431 632.338 53.168C629.797 50.2929 628.499 46.4795 628.445 41.7278C628.391 36.9762 629.598 32.9361 632.068 29.6076C634.538 26.2131 637.842 23.6671 641.981 21.9696C646.186 20.2714 650.763 19.3939 655.712 19.3373C661.718 19.2685 666.912 20.3311 671.293 22.5251C675.74 24.7184 679.244 28.0775 681.804 32.6025C683.083 34.766 683.866 36.8691 684.153 38.912C684.44 40.8888 684.594 42.8342 684.616 44.7481L668.48 44.9328C668.439 41.369 667.453 38.7731 665.52 37.1452C663.586 35.4512 660.607 34.6272 656.581 34.6733C653.347 34.7103 650.846 35.3 649.077 36.4423C647.308 37.5847 646.434 39.1128 646.456 41.0266C646.48 43.1385 647.686 44.6758 650.073 45.6385C652.46 46.6013 655.473 47.4578 659.112 48.2082C665.065 49.3282 669.698 50.4302 673.011 51.5144C676.389 52.5318 679.314 54.4124 681.788 57.1563C684.262 59.9001 685.527 63.7799 685.585 68.7956C685.639 73.5473 684.366 77.6541 681.765 81.1161C679.165 84.5781 675.697 87.258 671.363 89.1557C667.093 90.9867 662.451 91.9309 657.435 91.9883Z" fill="white"/>
<path d="M730.135 90.3999L731.043 38.9279L705.01 38.4686L705.317 21.0473L760.947 22.0287L760.64 39.45L734.607 38.9907L733.699 90.4627L730.135 90.3999Z" fill="white"/>
<path d="M785.818 40.2287L786.478 22.8172L830.996 24.5063L830.336 41.9178L809.857 41.1408L808.566 75.1723L829.044 75.9493L828.384 93.3608L783.866 91.6717L784.526 74.2602L805.005 75.0372L806.296 41.0057L785.818 40.2287Z" fill="white"/>
<path d="M877.785 97.2504C872.776 96.9873 868.195 95.4909 864.042 92.7613C859.956 90.0351 856.771 86.4972 854.488 82.1474C852.208 77.7317 851.2 73.0194 851.463 68.0103L853.697 25.4989L909.258 28.4178L907.025 70.9292C906.762 75.9383 905.265 80.5191 902.536 84.6716C899.809 88.7582 896.239 91.9413 891.823 94.2207C887.473 96.5037 882.794 97.5136 877.785 97.2504Z" fill="white"/>
<path d="M981.52 75.8928C981.033 84.5253 978.13 91.1181 972.812 95.6713C967.498 100.159 960.461 102.121 951.701 101.56C946.498 101.227 941.766 99.7328 937.505 97.0788C933.31 94.429 930.067 90.8483 927.777 86.3366C925.487 81.8248 924.523 76.7368 924.887 71.0724L925.811 56.648C926.17 51.0495 927.707 46.1548 930.423 41.9639C933.204 37.7773 936.812 34.6356 941.245 32.5388C945.748 30.3805 950.667 29.4722 956.002 29.8142C964.762 30.3757 971.458 33.2188 976.09 38.3435C980.792 43.4066 982.897 50.2874 982.405 58.9858L964.622 57.8459C964.771 54.4826 964.016 51.8218 962.356 49.8637C960.762 47.9097 958.285 46.825 954.926 46.6097C951.896 46.4155 949.332 47.2102 947.234 48.9936C945.135 50.777 943.974 53.4142 943.75 56.905L942.718 73.0089C942.494 76.4998 943.34 79.2986 945.255 81.4054C947.241 83.4506 949.748 84.5703 952.778 84.7645C959.694 85.2077 963.38 81.8727 963.835 74.7593L981.52 75.8928Z" fill="white"/>
<path d="M996.97 103.055L1002.02 34.3358L1005.67 34.6042L1004.24 54.0548C1011.02 54.553 1017.34 56.341 1023.21 59.4188C1029.07 62.4309 1034.11 66.4405 1038.3 71.4476C1042.51 76.3889 1045.61 81.9439 1047.6 88.1127L1051.29 37.9559L1054.94 38.2244L1049.89 106.943L1046.24 106.675C1046.84 98.4469 1045.36 90.6944 1041.79 83.4174C1038.23 76.0745 1033.08 70.1038 1026.33 65.5053C1019.66 60.9116 1012.2 58.3125 1003.97 57.708L1000.62 103.323L996.97 103.055Z" fill="white"/>
<path d="M1079 40.0891L1129.03 44.1743L1127.61 61.5405L1095.54 58.9218L1094.84 67.6049L1121.48 69.7804L1120.13 86.2586L1093.49 84.083L1092.77 92.8648L1124.84 95.4835L1123.42 112.85L1073.4 108.764L1079 40.0891Z" fill="white"/>
<path d="M1146.68 114.725L1152.79 46.0925L1156.64 46.4347L1200.41 97.3428L1204.56 50.7001L1208.21 51.0249L1202.1 119.658L1146.68 114.725Z" fill="white"/>
<path d="M1251.48 84.0525L1276.22 126.802L1221.03 121.513L1227.61 52.9231L1282.8 58.2128L1251.48 84.0525ZM1248.67 86.3692L1226.32 104.813L1225.03 118.216L1269.57 122.486L1248.67 86.3692Z" fill="white"/>
<path d="M1295.42 86.4194C1295.95 81.2986 1297.72 76.6709 1300.74 72.5364C1303.75 68.4019 1307.56 65.278 1312.15 63.1646C1316.82 61.058 1321.74 60.2723 1326.93 60.8074C1332.12 61.3424 1336.74 63.1137 1340.81 66.1211C1344.95 69.1354 1348.07 72.9739 1350.17 77.6367C1352.28 82.2995 1353.07 87.1913 1352.54 92.3121L1350.98 107.478C1350.45 112.598 1348.68 117.226 1345.66 121.361C1342.65 125.495 1338.81 128.616 1334.15 130.722C1329.55 132.836 1324.66 133.625 1319.47 133.09C1314.28 132.555 1309.62 130.78 1305.49 127.766C1301.42 124.758 1298.33 120.923 1296.23 116.26C1294.12 111.598 1293.33 106.706 1293.86 101.585L1295.42 86.4194ZM1311.78 103.434C1311.46 106.585 1312.16 109.379 1313.9 111.814C1315.64 114.249 1318.09 115.63 1321.24 115.955C1324.32 116.273 1326.97 115.418 1329.17 113.389C1331.37 111.36 1332.63 108.77 1332.95 105.618L1334.53 90.3544C1334.86 87.1375 1334.15 84.3442 1332.41 81.9745C1330.66 79.6048 1328.25 78.2607 1325.16 77.9424C1322.01 77.6173 1319.34 78.4364 1317.14 80.3997C1314.95 82.363 1313.69 84.9531 1313.36 88.17L1311.78 103.434Z" fill="white"/>
</svg>
